<svg width="56" height="81" viewBox="0 0 56 81" fill="none" xmlns="http://www.w3.org/2000/svg">
<path d="M17.9638 30.418C17.1761 30.418 16.5376 31.0566 16.5376 31.8442V75.0106C16.5376 75.7982 17.1761 76.4368 17.9638 76.4368C18.7514 76.4368 19.3899 75.7982 19.3899 75.0106V31.8442C19.3899 31.0564 18.7514 30.418 17.9638 30.418Z" fill="#FFBA08"/>
<path d="M24.4262 30.418C23.6385 30.418 23 31.0566 23 31.8442V75.0106C23 75.7982 23.6385 76.4368 24.4262 76.4368C25.2138 76.4368 25.8524 75.7982 25.8524 75.0106V31.8442C25.8524 31.0564 25.2138 30.418 24.4262 30.418Z" fill="#FFBA08"/>
<path d="M30.4262 30.418C29.6385 30.418 29 31.0566 29 31.8442V75.0106C29 75.7982 29.6385 76.4368 30.4262 76.4368C31.2138 76.4368 31.8524 75.7982 31.8524 75.0106V31.8442C31.8524 31.0564 31.2138 30.418 30.4262 30.418Z" fill="#FFBA08"/>
<path d="M37.0364 30.418C36.2487 30.418 35.6102 31.0566 35.6102 31.8442V75.0106C35.6102 75.7982 36.2487 76.4368 37.0364 76.4368C37.824 76.4368 38.4626 75.7982 38.4626 75.0106V31.8442C38.4626 31.0564 37.8238 30.418 37.0364 30.418Z" fill="#FFBA08"/>
<path d="M54.4776 77.9647H45.7316V27.2877C45.7316 26.5 45.0931 25.8615 44.3055 25.8615H42.6796V12.8357C42.6796 12.048 42.0411 11.4095 41.2534 11.4095H38.8061V1.42618C38.8061 0.63855 38.1675 2.38419e-07 37.3799 2.38419e-07H29.3781C29.3781 2.38419e-07 28.7395 0 27.9519 0C26.5257 2.38419e-07 26.5257 2.75672 26.5257 2.38419e-07H18.5238C17.7362 2.38419e-07 17.0977 0.63855 17.0977 1.42618V11.4095H14.6503C13.8627 11.4095 13.2241 12.048 13.2241 12.8357V25.8615H11.5983C10.8107 25.8615 10.1721 26.5 10.1721 27.2877V77.9647H1.42618C0.63855 77.9647 0 78.6033 0 79.3909C0 80.1785 0.63855 80.8171 1.42618 80.8171H54.4776C55.2652 80.8171 55.9038 80.1785 55.9038 79.3909C55.9038 78.6033 55.265 77.9647 54.4776 77.9647ZM19.95 2.85237H35.9537V11.4095H34.618V6.21113C34.618 5.42349 33.9795 4.78494 33.1919 4.78494C32.4042 4.78494 31.7657 5.42349 31.7657 6.21113V11.4095H29.3781V6.21113C29.3781 5.42349 28.7395 4.78494 27.9519 4.78494C27.1642 4.78494 26.5257 5.42349 26.5257 6.21113V11.4095H24.1383V6.21113C24.1383 5.42349 23.4997 4.78494 22.7121 4.78494C21.9244 4.78494 21.2859 5.42349 21.2859 6.21113V11.4095H19.9502L19.95 2.85237ZM16.0765 14.2618H39.8272V25.8615H37.2379V16.512C37.2379 15.7243 36.5993 15.0858 35.8117 15.0858C35.024 15.0858 34.3855 15.7243 34.3855 16.512V25.8615H31.9979V16.512C31.9979 15.7243 31.3593 15.0858 30.5717 15.0858C29.784 15.0858 29.1455 15.7243 29.1455 16.512V25.8615H26.7581V16.512C26.7581 15.7243 26.1195 15.0858 25.3319 15.0858C24.5442 15.0858 23.9057 15.7243 23.9057 16.512V25.8615H21.5183V16.512C21.5183 15.7243 20.8797 15.0858 20.0921 15.0858C19.3044 15.0858 18.6659 15.7243 18.6659 16.512V25.8615H16.0765V14.2618ZM13.0245 77.9647V28.7138H42.8793V77.9647H13.0245Z" fill="#FFBA08"/>
</svg>
